<svg xmlns="http://www.w3.org/2000/svg" xmlns:xlink="http://www.w3.org/1999/xlink" xmlns:inkscape="http://www.inkscape.org/namespaces/inkscape" version="1.1" width="720" height="288" viewBox="0 0 720 288">
<defs>
<path id="font_0_18" d="M.25898744 .5149994V0H.34700013V.72299197H.2889862C.2579956 .6119995 .23799134 .5970001 .101989749 .57899478V.5149994H.25898744Z"/>
<path id="font_0_19" d="M.5059967 .08699036H.1329956C.14199829 .14698792 .17399597 .18499756 .26098634 .23799134L.36099244 .2939911C.45999146 .34899903 .5109863 .4229889 .5109863 .5119934 .5109863 .57199099 .4869995 .6279907 .44499208 .6669922 .40299989 .7049866 .35099793 .72299197 .28399659 .72299197 .19400025 .72299197 .1269989 .69099429 .08799744 .6289978 .06298828 .59098818 .051986696 .54599 .049987794 .47299195H.13798523C.14099121 .5219879 .14698792 .5509949 .15899658 .57499697 .18199158 .61898806 .22799683 .6459961 .2809906 .6459961 .36099244 .6459961 .42099 .58799746 .42099 .5099945 .42099 .45199586 .3880005 .4019928 .32499696 .3659973L.23298645 .31199647C.084991458 .22698975 .041992189 .15899658 .033996583 .0009918213H.5059967V.08699036Z"/>
<path id="font_0_20" d="M.22099304 .33299256H.23199463 .2689972C.36499024 .33299256 .41600038 .28799439 .41600038 .20098877 .41600038 .10998535 .36099244 .054992677 .269989 .054992677 .17298889 .054992677 .12599182 .10398865 .11999512 .20999146H.03199768C.035995485 .1519928 .04598999 .11399841 .06298828 .08198547 .099990848 .011993408 .16899109-.023010254 .2659912-.023010254 .4119873-.023010254 .5059967 .06498718 .5059967 .20199585 .5059967 .2939911 .47099305 .34399415 .38598634 .37399293 .45199586 .40098573 .4850006 .45098878 .4850006 .5239868 .4850006 .647995 .4039917 .72299197 .2689972 .72299197 .12599182 .72299197 .049987794 .6429901 .04699707 .48999024H.1349945C.13598633 .5339966 .13999939 .5589905 .15098572 .58099368 .17098999 .621994 .21499634 .6459961 .269989 .6459961 .34799195 .6459961 .394989 .598999 .394989 .5209961 .394989 .46998597 .3769989 .43899537 .33799745 .42199708 .31399537 .4119873 .28199769 .4079895 .22099304 .40699769V.33299256Z"/>
<path id="font_0_21" d="M.32699586 .1749878V0H.4149933V.1749878H.519989V.2539978H.4149933V.72299197H.34999085L.027999878 .2679901V.1749878H.32699586M.32699586 .2539978H.10499573L.32699586 .57299807V.2539978Z"/>
<path id="font_0_22" d="M.47599793 .70899966H.10998535L.056991579 .32299806H.13798523C.1789856 .37199403 .21299744 .3889923 .2689972 .3889923 .3639984 .3889923 .4229889 .32398988 .4229889 .21899414 .4229889 .116989139 .3639984 .054992677 .2679901 .054992677 .19099427 .054992677 .14399719 .09399414 .12298584 .17399597H.034988405C.04699707 .115997318 .056991579 .08799744 .07798767 .06199646 .117996219 .0079956059 .18998719-.023010254 .269989-.023010254 .41299439-.023010254 .5130005 .08099365 .5130005 .23098755 .5130005 .37098695 .41999818 .46699525 .28399659 .46699525 .23399353 .46699525 .19400025 .45399476 .15299988 .42399598L.18099976 .621994H.47599793V.70899966Z"/>
<path id="font_0_23" d="M.49798585 .5349884C.48098756 .6529999 .40499879 .72299197 .29699708 .72299197 .21899414 .72299197 .14898682 .68499758 .10699463 .6199951 .06199646 .548996 .042999269 .46099855 .042999269 .32998658 .042999269 .20799256 .05999756 .1309967 .102996829 .066986087 .14099121 .0079956059 .20298767-.023010254 .2809906-.023010254 .41600038-.023010254 .5130005 .07798767 .5130005 .21899414 .5130005 .35198976 .4229889 .44599916 .29599 .44599916 .22599793 .44599916 .17098999 .41999818 .1329956 .36698915 .13398743 .54599 .18998719 .644989 .29100038 .644989 .35299684 .644989 .3959961 .6049957 .4099884 .5349884H.49798585M.2849884 .36799623C.36999513 .36799623 .4229889 .30799867 .4229889 .21199036 .4229889 .12098694 .36299134 .054992677 .28199769 .054992677 .19999695 .054992677 .13798523 .12399292 .13798523 .21598816 .13798523 .30599977 .19799805 .36799623 .2849884 .36799623Z"/>
<path id="font_0_24" d="M.519989 .70899966H.04598999V.621994H.42900086C.2599945 .3809967 .19099427 .23298645 .13798523 0H.23199463C.2709961 .22698975 .3600006 .42199708 .519989 .6349945V.70899966Z"/>
<path id="font_0_25" d="M.3909912 .3809967C.46499635 .42599488 .48799134 .46199037 .48799134 .5299988 .48799134 .6439972 .40098573 .72299197 .2749939 .72299197 .1499939 .72299197 .06199646 .6439972 .06199646 .5309906 .06199646 .46199037 .084991458 .4269867 .1579895 .3809967 .07699585 .33999635 .036987306 .2809906 .036987306 .20098877 .036987306 .068984989 .13398743-.023010254 .2749939-.023010254 .4149933-.023010254 .5130005 .068984989 .5130005 .20098877 .5130005 .2809906 .47299195 .33999635 .3909912 .3809967M.2749939 .644989C.34999085 .644989 .397995 .59999087 .397995 .5279999 .397995 .45999146 .34899903 .4149933 .2749939 .4149933 .19999695 .4149933 .1519928 .45999146 .1519928 .5299988 .1519928 .59999087 .19999695 .644989 .2749939 .644989M.2749939 .34098817C.36299134 .34098817 .4229889 .2829895 .4229889 .19898987 .4229889 .11199951 .3639984 .054992677 .272995 .054992677 .18699646 .054992677 .1269989 .11399841 .1269989 .19799805 .1269989 .28399659 .18598938 .34098817 .2749939 .34098817Z"/>
<path id="font_0_26" d="M.052993776 .16499329C.069992069 .04699707 .1459961-.023010254 .2539978-.023010254 .33299256-.023010254 .40299989 .01499939 .44499208 .07998657 .4889984 .15098572 .5089874 .23899842 .5089874 .36999513 .5089874 .49198915 .4909973 .56900027 .44898988 .6329956 .4099884 .69200137 .34799195 .72299197 .269989 .72299197 .1349945 .72299197 .037994386 .621994 .037994386 .48199464 .037994386 .34899903 .12799073 .25498963 .2559967 .25498963 .32299806 .25498963 .37298585 .2789917 .41799928 .33399964 .4169922 .1539917 .36099244 .054992677 .2599945 .054992677 .19799805 .054992677 .15499878 .09498596 .14099121 .16499329H.052993776M.2689972 .6459961C.35099793 .6459961 .41299439 .57699587 .41299439 .48399354 .41299439 .394989 .35299684 .33299256 .2659912 .33299256 .18099976 .33299256 .12799073 .3929901 .12799073 .4889984 .12799073 .5799866 .18699646 .6459961 .2689972 .6459961Z"/>
<path id="font_0_17" d="M.2749939 .72299197C.20899964 .72299197 .14898682 .69299319 .11199951 .6439972 .06599426 .5799866 .042999269 .48399354 .042999269 .34999085 .042999269 .10598755 .12298584-.023010254 .2749939-.023010254 .4249878-.023010254 .5069885 .10598755 .5069885 .34399415 .5069885 .48399354 .4850006 .5779877 .43798829 .6439972 .40098573 .69400027 .34199525 .72299197 .2749939 .72299197M.2749939 .644989C.36999513 .644989 .4169922 .5479889 .4169922 .35198976 .4169922 .1459961 .37098695 .049987794 .272995 .049987794 .17999268 .049987794 .1329956 .1499939 .1329956 .34899903 .1329956 .5479889 .17999268 .644989 .2749939 .644989Z"/>
<path id="font_0_49" d="M.18399048 .30899049H.41299439C.46998597 .30899049 .5149994 .32598878 .55400088 .36099244 .59799197 .40098573 .61698916 .44799806 .61698916 .5149994 .61698916 .6519928 .5359955 .72898867 .3919983 .72898867H.09098816V0H.18399048V.30899049M.18399048 .3909912V.6469879H.37799073C.46699525 .6469879 .519989 .598999 .519989 .5189972 .519989 .43899537 .46699525 .3909912 .37799073 .3909912H.18399048Z"/>
<path id="font_0_80" d="M.27198792 .5389862C.12399292 .5389862 .035995485 .43399049 .035995485 .2579956 .035995485 .08099365 .12399292-.023010254 .272995-.023010254 .42099-.023010254 .5099945 .08198547 .5099945 .2539978 .5099945 .43598939 .42399598 .5389862 .27198792 .5389862M.272995 .46199037C.36698915 .46199037 .4229889 .3849945 .4229889 .25498963 .4229889 .1309967 .36499024 .053985597 .272995 .053985597 .17999268 .053985597 .12298584 .1309967 .12298584 .2579956 .12298584 .3849945 .17999268 .46199037 .272995 .46199037Z"/>
<path id="font_0_84" d="M.43798829 .37799073C.43699647 .48098756 .36898805 .5389862 .24798584 .5389862 .12599182 .5389862 .04699707 .47599793 .04699707 .3789978 .04699707 .29699708 .08898926 .2579956 .21299744 .22799683L.29100038 .20899964C.34899903 .19499207 .37199403 .17399597 .37199403 .13699341 .37199403 .08699036 .32299806 .053985597 .25 .053985597 .20498657 .053985597 .16699219 .066986087 .1459961 .08898926 .1329956 .10398865 .1269989 .11898804 .12199402 .1559906H.033996583C.037994386 .034988405 .10598755-.023010254 .24299622-.023010254 .375-.023010254 .45899964 .041992189 .45899964 .14299011 .45899964 .22099304 .4149933 .2639923 .31098939 .2889862L.23098755 .30799867C.16299439 .32398988 .13398743 .34599305 .13398743 .3829956 .13398743 .43199159 .1769867 .46199037 .24499512 .46199037 .31199647 .46199037 .34799195 .43299867 .34999085 .37799073H.43798829Z"/>
<path id="font_0_85" d="M.2539978 .5239868H.16799927V.66799929H.084991458V.5239868H.01399231V.45599366H.084991458V.05999756C.084991458 .005996704 .12098694-.023010254 .18598938-.023010254 .20799256-.023010254 .22599793-.021011353 .2539978-.01600647V.053985597C.24198914 .050994874 .23098755 .049987794 .21398926 .049987794 .17799378 .049987794 .16799927 .05999756 .16799927 .09700012V.45599366H.2539978V.5239868Z"/>
<path id="font_0_70" d="M.5130005 .23399353C.5130005 .31399537 .5069885 .3619995 .49198915 .40098573 .45799256 .4869995 .37799073 .5389862 .27999879 .5389862 .13398743 .5389862 .039993287 .42799378 .039993287 .25498963 .039993287 .08198547 .12998963-.023010254 .27799989-.023010254 .397995-.023010254 .48098756 .04499817 .5019989 .15899658H.41799928C.394989 .08999634 .34799195 .053985597 .2809906 .053985597 .22799683 .053985597 .18299866 .07798767 .15499878 .12199402 .1349945 .1519928 .12799073 .18199158 .1269989 .23399353H.5130005M.1289978 .3019867C.13598633 .39898683 .19499207 .46199037 .2789917 .46199037 .3639984 .46199037 .4229889 .3959961 .4229889 .3019867H.1289978Z"/>
<path id="font_0_83" d="M.068984989 .5239868V0H.15299988V.27198792C.1539917 .397995 .20599365 .45399476 .32099916 .45098878V.5359955C.30699159 .5379944 .29899598 .5389862 .2889862 .5389862 .23498535 .5389862 .19400025 .5069885 .1459961 .42900086V.5239868H.068984989Z"/>
<path id="font_0_74" d="M.1499939 .5239868H.066986087V0H.1499939V.5239868M.1499939 .72898867H.06599426V.6239929H.1499939V.72898867Z"/>
<path id="font_0_1" d="M0 0Z"/>
<path id="font_0_71" d="M.2579956 .5239868H.17098999V.60598757C.17098999 .6409912 .18998719 .6589966 .22898865 .6589966 .23599243 .6589966 .23899842 .6589966 .2579956 .6579895V.72698977C.23899842 .73098757 .22799683 .7319946 .21099854 .7319946 .13398743 .7319946 .08799744 .6879883 .08799744 .61299136V.5239868H.017990113V.45599366H.08799744V0H.17098999V.45599366H.2579956V.5239868Z"/>
<path id="font_0_73" d="M.069992069 .72898867V0H.15299988V.2889862C.15299988 .3959961 .20899964 .46598817 .29499818 .46598817 .32299806 .46598817 .34899903 .45799256 .36898805 .44299317 .3929901 .4249878 .40299989 .3999939 .40299989 .36299134V0H.48599244V.3959961C.48599244 .48399354 .4229889 .5389862 .32099916 .5389862 .24699402 .5389862 .20199585 .5159912 .15299988 .45199586V.72898867H.069992069Z"/>
<path id="font_0_35" d="M.07899475 0H.4079895C.47698976 0 .5279999 .018997193 .5669861 .06098938 .6029968 .09899902 .6230011 .15098572 .6230011 .20799256 .6230011 .29599 .58299258 .34899903 .48999024 .3849945 .5569916 .41600038 .59098818 .46899415 .59098818 .5439911 .59098818 .59799197 .57099917 .6439972 .5329895 .6779938 .49398805 .71299746 .44499208 .72898867 .375 .72898867H.07899475V0M.17199707 .4149933V.6469879H.35198976C.4039917 .6469879 .43299867 .6399994 .45799256 .62098696 .48399354 .6009979 .49798585 .57099917 .49798585 .5309906 .49798585 .4909973 .48399354 .46099855 .45799256 .44099427 .43299867 .42199708 .4039917 .4149933 .35198976 .4149933H.17199707M.17199707 .08198547V.33299256H.39898683C.48098756 .33299256 .5299988 .28599549 .5299988 .20698548 .5299988 .1289978 .48098756 .08198547 .39898683 .08198547H.17199707Z"/>
<path id="font_0_66" d="M.5349884 .04899597C.526001 .04699707 .5219879 .04699707 .5169983 .04699707 .48799134 .04699707 .47200013 .06199646 .47200013 .08799744V.3959961C.47200013 .4889984 .4039917 .5389862 .2749939 .5389862 .19799805 .5389862 .13699341 .5169983 .100997928 .47799684 .07699585 .45098878 .066986087 .42099 .06498718 .36898805H.14898682C.1559906 .43299867 .19400025 .46199037 .27198792 .46199037 .34799195 .46199037 .3889923 .43399049 .3889923 .38398744V.3619995C.3880005 .32598878 .36999513 .31298829 .3019867 .3039856 .18399048 .2889862 .1659851 .2849884 .13398743 .27198792 .07299805 .24598694 .041992189 .19999695 .041992189 .13198853 .041992189 .036987306 .10798645-.023010254 .21398926-.023010254 .27999879-.023010254 .33299256 0 .3919983 .053985597 .397995 0 .42399598-.023010254 .47799684-.023010254 .49598695-.023010254 .5069885-.021011353 .5349884-.014007568V.04899597M.3889923 .16499329C.3889923 .13699341 .3809967 .11999512 .35598756 .09700012 .32199098 .06599426 .2809906 .049987794 .23199463 .049987794 .16699219 .049987794 .1289978 .08099365 .1289978 .13398743 .1289978 .18899536 .16499329 .21699524 .25498963 .22999573 .34399415 .24198914 .36099244 .24598694 .3889923 .25898744V.16499329Z"/>
<path id="font_0_51" d="M.18598938 .31399537H.42599488C.5089874 .31399537 .54599 .27398683 .54599 .18399048L.54499819 .11898804C.54499819 .07398987 .5529938 .02999878 .56599429 0H.67900088V.022994996C.6439972 .04699707 .6369934 .07299805 .6349945 .16999817 .6339874 .2899933 .61499026 .32598878 .5359955 .3600006 .6179962 .40098573 .651001 .44999696 .651001 .5339966 .651001 .6599884 .57299807 .72898867 .42900086 .72898867H.09298706V0H.18598938V.31399537M.18598938 .3959961V.6469879H.41099549C.46299745 .6469879 .49299623 .6389923 .5159912 .61898806 .54100039 .59799197 .55400088 .5649872 .55400088 .5219879 .55400088 .43499757 .5099945 .3959961 .41099549 .3959961H.18598938Z"/>
<path id="font_0_9" d="M.23599243 .72898867C.13598633 .59799197 .07299805 .41600038 .07299805 .25898744 .07299805 .100997928 .13598633-.08100891 .23599243-.21200562H.29100038C.20298767-.069000247 .1539917 .09899902 .1539917 .25898744 .1539917 .41799928 .20298767 .58699038 .29100038 .72898867H.23599243Z"/>
<path id="font_1_81" d="M.02999878 .34799195C.05999756 .397995 .07798767 .4099884 .12799073 .41099549H.17399597L.147995 .18899536C.14399719 .16099549 .1309967 .13999939 .09700012 .10798645 .06599426 .07998657 .056991579 .06498718 .056991579 .041992189 .056991579 .010986328 .08099365-.013000488 .11199951-.013000488 .14299011-.013000488 .16699219 .009994507 .17999268 .052993776 .18899536 .07899475 .20298767 .18099976 .21199036 .28199769L.22399903 .41099549H.33299256C.32099916 .32998658 .31199647 .22599793 .31199647 .16699219 .31199647 .054992677 .34899903-.013000488 .41099549-.013000488 .44999696-.013000488 .4850006 .01399231 .5089874 .06098938 .522995 .08898926 .5269928 .10798645 .5299988 .1579895H.5059967C.5009918 .10998535 .48199464 .084991458 .44898988 .084991458 .42900086 .084991458 .4079895 .09899902 .39698792 .11999512 .3880005 .13798523 .3849945 .1539917 .3849945 .18699646 .3849945 .2649994 .3899994 .35499574 .39698792 .41099549H.522995V.5H.17298889C.09199524 .5049896 .039993287 .45700074 .009994507 .34799195H.02999878Z"/>
<path id="font_0_10" d="M.09298706-.21200562C.19299317-.08100891 .2559967 .100997928 .2559967 .2579956 .2559967 .41600038 .19299317 .59799197 .09298706 .72898867H.037994386C.12599182 .58599856 .1749878 .41799928 .1749878 .2579956 .1749878 .09899902 .12599182-.070007327 .037994386-.21200562H.09298706Z"/>
<path id="font_0_81" d="M.053985597-.21800232H.13798523V.054992677C.18199158 .0009918213 .23098755-.023010254 .29899598-.023010254 .43499757-.023010254 .522995 .085998538 .522995 .25299073 .522995 .42900086 .43699647 .5389862 .2979889 .5389862 .22698975 .5389862 .16999817 .5069885 .1309967 .44499208V.5239868H.053985597V-.21800232M.28399659 .46099855C.37599183 .46099855 .43598939 .37998963 .43598939 .25498963 .43598939 .13598633 .375 .054992677 .28399659 .054992677 .19499207 .054992677 .13798523 .1349945 .13798523 .2579956 .13798523 .3809967 .19499207 .46099855 .28399659 .46099855Z"/>
<path id="font_0_78" d="M.069992069 .5239868V0H.1539917V.32899476C.1539917 .40499879 .20899964 .46598817 .2769928 .46598817 .33898927 .46598817 .37399293 .42799378 .37399293 .36099244V0H.45799256V.32899476C.45799256 .40499879 .5130005 .46598817 .58099368 .46598817 .6419983 .46598817 .6779938 .4269867 .6779938 .36099244V0H.7619934V.3929901C.7619934 .4869995 .70799258 .5389862 .6100006 .5389862 .5399933 .5389862 .49798585 .5179901 .44898988 .45899964 .41799928 .5149994 .37599183 .5389862 .30799867 .5389862 .23799134 .5389862 .19099427 .5130005 .14698792 .44999696V.5239868H.069992069Z"/>
<path id="font_0_47" d="M.6459961 .72898867H.55799868V.1329956L.1769867 .72898867H.07598877V0H.1639862V.59098818L.54100039 0H.6459961V.72898867Z"/>
<path id="font_0_86" d="M.48199464 0V.5239868H.39898683V.22698975C.39898683 .11999512 .34298707 .049987794 .2559967 .049987794 .18998719 .049987794 .147995 .08999634 .147995 .15299988V.5239868H.06498718V.11999512C.06498718 .032989503 .12998963-.023010254 .23199463-.023010254 .30899049-.023010254 .35798646 .0039978029 .40699769 .07299805V0H.48199464Z"/>
<path id="font_0_67" d="M.053985597 .72898867V0H.1289978V.066986087C.16899109 .005996704 .22200012-.023010254 .29499818-.023010254 .43299867-.023010254 .522995 .08999634 .522995 .2639923 .522995 .43399049 .43798829 .5389862 .29899598 .5389862 .22698975 .5389862 .17599488 .5119934 .13699341 .45298768V.72898867H.053985597M.2829895 .46099855C.37599183 .46099855 .43598939 .37998963 .43598939 .25498963 .43598939 .13598633 .37399293 .054992677 .2829895 .054992677 .19400025 .054992677 .13699341 .1349945 .13699341 .2579956 .13699341 .3809967 .19400025 .46099855 .2829895 .46099855Z"/>
<path id="font_0_90" d="M.3880005 .5239868 .24299622 .115997318 .10899353 .5239868H.019989014L.19699097-.0020141602 .16499329-.085006717C.15098572-.12200928 .1329956-.13600159 .09799194-.13600159 .083999637-.13600159 .07199097-.13400269 .053985597-.13000489V-.20500183C.070999149-.21400452 .08799744-.21800232 .10998535-.21800232 .13699341-.21800232 .1659851-.2090149 .18798828-.19300843 .21398926-.17401123 .22898865-.15200806 .24499512-.11000061L.47799684 .5239868H.3880005Z"/>
<path id="font_0_79" d="M.069992069 .5239868V0H.1539917V.2889862C.1539917 .3959961 .20999146 .46598817 .29599 .46598817 .3619995 .46598817 .4039917 .42599488 .4039917 .36299134V0H.4869995V.3959961C.4869995 .48298646 .42199708 .5389862 .32099916 .5389862 .24299622 .5389862 .19299317 .5089874 .14698792 .43598939V.5239868H.069992069Z"/>
<path id="font_0_69" d="M.49499513 .72898867H.4119873V.45799256C.3769989 .5109863 .32099916 .5389862 .25099183 .5389862 .114990238 .5389862 .025985718 .42999269 .025985718 .2630005 .025985718 .085998538 .11199951-.023010254 .2539978-.023010254 .32598878-.023010254 .37599183 .0039978029 .42099 .068984989V0H.49499513V.72898867M.2649994 .46099855C.35499574 .46099855 .4119873 .38198854 .4119873 .2559967 .4119873 .1349945 .35398866 .054992677 .2659912 .054992677 .17399597 .054992677 .11299133 .13598633 .11299133 .2579956 .11299133 .37998963 .17399597 .46099855 .2649994 .46099855Z"/>
<path id="font_0_77" d="M.1519928 .72898867H.067993167V0H.1519928V.72898867Z"/>
<path id="font_0_15" d="M.19099427 .10398865H.08699036V0H.19099427V.10398865Z"/>
</defs>
<path transform="matrix(1,0,0,-1,0,288)" d="M82.4 73.44H115.21001V202.90001H82.4Z" fill="#bebebe"/>
<path transform="matrix(1,0,0,-1,0,288)" stroke-width=".75" stroke-linecap="round" stroke-linejoin="round" fill="none" stroke="#000000" d="M82.4 73.44H115.21001V202.90001H82.4Z"/>
<path transform="matrix(1,0,0,-1,0,288)" d="M121.77 73.44H154.58V97.03H121.77Z" fill="#bebebe"/>
<path transform="matrix(1,0,0,-1,0,288)" stroke-width=".75" stroke-linecap="round" stroke-linejoin="round" fill="none" stroke="#000000" d="M121.77 73.44H154.58V97.03H121.77Z"/>
<path transform="matrix(1,0,0,-1,0,288)" d="M161.14 73.44H193.95V91.16H161.14Z" fill="#bebebe"/>
<path transform="matrix(1,0,0,-1,0,288)" stroke-width=".75" stroke-linecap="round" stroke-linejoin="round" fill="none" stroke="#000000" d="M161.14 73.44H193.95V91.16H161.14Z"/>
<path transform="matrix(1,0,0,-1,0,288)" d="M200.51 73.44H233.31999V91.22H200.51Z" fill="#bebebe"/>
<path transform="matrix(1,0,0,-1,0,288)" stroke-width=".75" stroke-linecap="round" stroke-linejoin="round" fill="none" stroke="#000000" d="M200.51 73.44H233.31999V91.22H200.51Z"/>
<path transform="matrix(1,0,0,-1,0,288)" d="M239.88 73.44H272.69V90.090007H239.88Z" fill="#bebebe"/>
<path transform="matrix(1,0,0,-1,0,288)" stroke-width=".75" stroke-linecap="round" stroke-linejoin="round" fill="none" stroke="#000000" d="M239.88 73.44H272.69V90.090007H239.88Z"/>
<path transform="matrix(1,0,0,-1,0,288)" d="M279.25 73.44H312.06V82.8H279.25Z" fill="#bebebe"/>
<path transform="matrix(1,0,0,-1,0,288)" stroke-width=".75" stroke-linecap="round" stroke-linejoin="round" fill="none" stroke="#000000" d="M279.25 73.44H312.06V82.8H279.25Z"/>
<path transform="matrix(1,0,0,-1,0,288)" d="M318.62 73.44H351.43V79.66H318.62Z" fill="#bebebe"/>
<path transform="matrix(1,0,0,-1,0,288)" stroke-width=".75" stroke-linecap="round" stroke-linejoin="round" fill="none" stroke="#000000" d="M318.62 73.44H351.43V79.66H318.62Z"/>
<path transform="matrix(1,0,0,-1,0,288)" d="M358 73.44H390.81V76.840007H358Z" fill="#bebebe"/>
<path transform="matrix(1,0,0,-1,0,288)" stroke-width=".75" stroke-linecap="round" stroke-linejoin="round" fill="none" stroke="#000000" d="M358 73.44H390.81V76.840007H358Z"/>
<path transform="matrix(1,0,0,-1,0,288)" d="M397.37 73.44H430.18V78.73H397.37Z" fill="#bebebe"/>
<path transform="matrix(1,0,0,-1,0,288)" stroke-width=".75" stroke-linecap="round" stroke-linejoin="round" fill="none" stroke="#000000" d="M397.37 73.44H430.18V78.73H397.37Z"/>
<path transform="matrix(1,0,0,-1,0,288)" d="M436.74 73.44H469.55V75.16H436.74Z" fill="#bebebe"/>
<path transform="matrix(1,0,0,-1,0,288)" stroke-width=".75" stroke-linecap="round" stroke-linejoin="round" fill="none" stroke="#000000" d="M436.74 73.44H469.55V75.16H436.74Z"/>
<path transform="matrix(1,0,0,-1,0,288)" d="M476.11 73.44H508.91999V74.33H476.11Z" fill="#bebebe"/>
<path transform="matrix(1,0,0,-1,0,288)" stroke-width=".75" stroke-linecap="round" stroke-linejoin="round" fill="none" stroke="#000000" d="M476.11 73.44H508.91999V74.33H476.11Z"/>
<path transform="matrix(1,0,0,-1,0,288)" d="M515.48 73.44H548.29V74.340007H515.48Z" fill="#bebebe"/>
<path transform="matrix(1,0,0,-1,0,288)" stroke-width=".75" stroke-linecap="round" stroke-linejoin="round" fill="none" stroke="#000000" d="M515.48 73.44H548.29V74.340007H515.48Z"/>
<path transform="matrix(1,0,0,-1,0,288)" d="M554.85 73.44H587.66V75.22H554.85Z" fill="#bebebe"/>
<path transform="matrix(1,0,0,-1,0,288)" stroke-width=".75" stroke-linecap="round" stroke-linejoin="round" fill="none" stroke="#000000" d="M554.85 73.44H587.66V75.22H554.85Z"/>
<path transform="matrix(1,0,0,-1,0,288)" d="M594.22 73.44H627.02999V74.33H594.22Z" fill="#bebebe"/>
<path transform="matrix(1,0,0,-1,0,288)" stroke-width=".75" stroke-linecap="round" stroke-linejoin="round" fill="none" stroke="#000000" d="M594.22 73.44H627.02999V74.33H594.22Z"/>
<path transform="matrix(1,0,0,-1,0,288)" d="M633.59 73.44H666.4V97H633.59Z" fill="#bebebe"/>
<path transform="matrix(1,0,0,-1,0,288)" stroke-width=".75" stroke-linecap="round" stroke-linejoin="round" fill="none" stroke="#000000" d="M633.59 73.44H666.4V97H633.59Z"/>
<use data-text="1" xlink:href="#font_0_18" transform="matrix(12,0,0,-12,95.47,240.48)"/>
<use data-text="2" xlink:href="#font_0_19" transform="matrix(12,0,0,-12,134.84,240.48)"/>
<use data-text="3" xlink:href="#font_0_20" transform="matrix(12,0,0,-12,174.21,240.48)"/>
<use data-text="4" xlink:href="#font_0_21" transform="matrix(12,0,0,-12,213.58,240.48)"/>
<use data-text="5" xlink:href="#font_0_22" transform="matrix(12,0,0,-12,252.95,240.48)"/>
<use data-text="6" xlink:href="#font_0_23" transform="matrix(12,0,0,-12,292.32,240.48)"/>
<use data-text="7" xlink:href="#font_0_24" transform="matrix(12,0,0,-12,331.69,240.48)"/>
<use data-text="8" xlink:href="#font_0_25" transform="matrix(12,0,0,-12,371.06,240.48)"/>
<use data-text="9" xlink:href="#font_0_26" transform="matrix(12,0,0,-12,410.43,240.48)"/>
<use data-text="1" xlink:href="#font_0_18" transform="matrix(12,0,0,-12,446.47,240.48)"/>
<use data-text="0" xlink:href="#font_0_17" transform="matrix(12,0,0,-12,453.142,240.48)"/>
<use data-text="1" xlink:href="#font_0_18" transform="matrix(12,0,0,-12,485.84,240.48)"/>
<use data-text="1" xlink:href="#font_0_18" transform="matrix(12,0,0,-12,492.512,240.48)"/>
<use data-text="1" xlink:href="#font_0_18" transform="matrix(12,0,0,-12,525.21,240.48)"/>
<use data-text="2" xlink:href="#font_0_19" transform="matrix(12,0,0,-12,531.882,240.48)"/>
<use data-text="1" xlink:href="#font_0_18" transform="matrix(12,0,0,-12,564.58,240.48)"/>
<use data-text="3" xlink:href="#font_0_20" transform="matrix(12,0,0,-12,571.252,240.48)"/>
<use data-text="1" xlink:href="#font_0_18" transform="matrix(12,0,0,-12,603.95,240.48)"/>
<use data-text="4" xlink:href="#font_0_21" transform="matrix(12,0,0,-12,610.622,240.48)"/>
<use data-text="1" xlink:href="#font_0_18" transform="matrix(12,0,0,-12,643.32,240.48)"/>
<use data-text="5" xlink:href="#font_0_22" transform="matrix(12,0,0,-12,649.992,240.48)"/>
<use data-text="P" xlink:href="#font_0_49" transform="matrix(14,0,0,-14,248.32,33.199998)"/>
<use data-text="o" xlink:href="#font_0_80" transform="matrix(14,0,0,-14,256.958,33.199998)"/>
<use data-text="s" xlink:href="#font_0_84" transform="matrix(14,0,0,-14,264.742,33.199998)"/>
<use data-text="t" xlink:href="#font_0_85" transform="matrix(14,0,0,-14,271.742,33.199998)"/>
<use data-text="e" xlink:href="#font_0_70" transform="matrix(14,0,0,-14,275.634,33.199998)"/>
<use data-text="r" xlink:href="#font_0_83" transform="matrix(14,0,0,-14,283.418,33.199998)"/>
<use data-text="i" xlink:href="#font_0_74" transform="matrix(14,0,0,-14,288.28999,33.199998)"/>
<use data-text="o" xlink:href="#font_0_80" transform="matrix(14,0,0,-14,291.39799,33.199998)"/>
<use data-text="r" xlink:href="#font_0_83" transform="matrix(14,0,0,-14,299.18199,33.199998)"/>
<use data-text=" " xlink:href="#font_0_1" transform="matrix(14,0,0,-14,303.84397,33.199998)"/>
<use data-text="o" xlink:href="#font_0_80" transform="matrix(14,0,0,-14,307.73597,33.199998)"/>
<use data-text="f" xlink:href="#font_0_71" transform="matrix(14,0,0,-14,315.51997,33.199998)"/>
<use data-text=" " xlink:href="#font_0_1" transform="matrix(14,0,0,-14,319.41197,33.199998)"/>
<use data-text="t" xlink:href="#font_0_85" transform="matrix(14,0,0,-14,323.30397,33.199998)"/>
<use data-text="h" xlink:href="#font_0_73" transform="matrix(14,0,0,-14,327.19596,33.199998)"/>
<use data-text="e" xlink:href="#font_0_70" transform="matrix(14,0,0,-14,334.97996,33.199998)"/>
<use data-text=" " xlink:href="#font_0_1" transform="matrix(14,0,0,-14,342.76396,33.199998)"/>
<use data-text="B" xlink:href="#font_0_35" transform="matrix(14,0,0,-14,346.65596,33.199998)"/>
<use data-text="a" xlink:href="#font_0_66" transform="matrix(14,0,0,-14,355.99397,33.199998)"/>
<use data-text="s" xlink:href="#font_0_84" transform="matrix(14,0,0,-14,363.77796,33.199998)"/>
<use data-text="e" xlink:href="#font_0_70" transform="matrix(14,0,0,-14,370.77796,33.199998)"/>
<use data-text=" " xlink:href="#font_0_1" transform="matrix(14,0,0,-14,378.56196,33.199998)"/>
<use data-text="R" xlink:href="#font_0_51" transform="matrix(14,0,0,-14,382.45396,33.199998)"/>
<use data-text="a" xlink:href="#font_0_66" transform="matrix(14,0,0,-14,392.56196,33.199998)"/>
<use data-text="t" xlink:href="#font_0_85" transform="matrix(14,0,0,-14,400.34596,33.199998)"/>
<use data-text="e" xlink:href="#font_0_70" transform="matrix(14,0,0,-14,404.23796,33.199998)"/>
<use data-text=" " xlink:href="#font_0_1" transform="matrix(14,0,0,-14,412.02195,33.199998)"/>
<use data-text="(" xlink:href="#font_0_9" transform="matrix(14,0,0,-14,415.91395,33.199998)"/>
<use data-text="&#x03c0;" xlink:href="#font_1_81" transform="matrix(14,0,0,-14,420.58,33.199998)"/>
<use data-text=")" xlink:href="#font_0_10" transform="matrix(14,0,0,-14,428.27,33.199998)"/>
<use data-text=" " xlink:href="#font_0_1" transform="matrix(14,0,0,-14,432.93199,33.199998)"/>
<use data-text="p" xlink:href="#font_0_81" transform="matrix(14,0,0,-14,436.82398,33.199998)"/>
<use data-text="a" xlink:href="#font_0_66" transform="matrix(14,0,0,-14,444.60798,33.199998)"/>
<use data-text="r" xlink:href="#font_0_83" transform="matrix(14,0,0,-14,452.39198,33.199998)"/>
<use data-text="a" xlink:href="#font_0_66" transform="matrix(14,0,0,-14,456.91395,33.199998)"/>
<use data-text="m" xlink:href="#font_0_78" transform="matrix(14,0,0,-14,464.69795,33.199998)"/>
<use data-text="e" xlink:href="#font_0_70" transform="matrix(14,0,0,-14,476.35993,33.199998)"/>
<use data-text="t" xlink:href="#font_0_85" transform="matrix(14,0,0,-14,484.14393,33.199998)"/>
<use data-text="e" xlink:href="#font_0_70" transform="matrix(14,0,0,-14,488.03593,33.199998)"/>
<use data-text="r" xlink:href="#font_0_83" transform="matrix(14,0,0,-14,495.81993,33.199998)"/>
<use data-text="N" xlink:href="#font_0_47" transform="matrix(12,0,0,-12,309.74,269.28)"/>
<use data-text="u" xlink:href="#font_0_86" transform="matrix(12,0,0,-12,318.404,269.28)"/>
<use data-text="m" xlink:href="#font_0_78" transform="matrix(12,0,0,-12,325.076,269.28)"/>
<use data-text="b" xlink:href="#font_0_67" transform="matrix(12,0,0,-12,335.072,269.28)"/>
<use data-text="e" xlink:href="#font_0_70" transform="matrix(12,0,0,-12,341.744,269.28)"/>
<use data-text="r" xlink:href="#font_0_83" transform="matrix(12,0,0,-12,348.416,269.28)"/>
<use data-text=" " xlink:href="#font_0_1" transform="matrix(12,0,0,-12,352.412,269.28)"/>
<use data-text="o" xlink:href="#font_0_80" transform="matrix(12,0,0,-12,355.748,269.28)"/>
<use data-text="f" xlink:href="#font_0_71" transform="matrix(12,0,0,-12,362.41999,269.28)"/>
<use data-text=" " xlink:href="#font_0_1" transform="matrix(12,0,0,-12,365.75599,269.28)"/>
<use data-text="t" xlink:href="#font_0_85" transform="matrix(12,0,0,-12,369.09199,269.28)"/>
<use data-text="o" xlink:href="#font_0_80" transform="matrix(12,0,0,-12,372.42799,269.28)"/>
<use data-text="y" xlink:href="#font_0_90" transform="matrix(12,0,0,-12,378.74,269.28)"/>
<use data-text="s" xlink:href="#font_0_84" transform="matrix(12,0,0,-12,384.74,269.28)"/>
<use data-text=" " xlink:href="#font_0_1" transform="matrix(12,0,0,-12,390.74,269.28)"/>
<use data-text="r" xlink:href="#font_0_83" transform="matrix(12,0,0,-12,394.076,269.28)"/>
<use data-text="e" xlink:href="#font_0_70" transform="matrix(12,0,0,-12,398.072,269.28)"/>
<use data-text="t" xlink:href="#font_0_85" transform="matrix(12,0,0,-12,404.744,269.28)"/>
<use data-text="u" xlink:href="#font_0_86" transform="matrix(12,0,0,-12,408.08,269.28)"/>
<use data-text="r" xlink:href="#font_0_83" transform="matrix(12,0,0,-12,414.75199,269.28)"/>
<use data-text="n" xlink:href="#font_0_79" transform="matrix(12,0,0,-12,419.04798,269.28)"/>
<use data-text="e" xlink:href="#font_0_70" transform="matrix(12,0,0,-12,425.71998,269.28)"/>
<use data-text="d" xlink:href="#font_0_69" transform="matrix(12,0,0,-12,432.39198,269.28)"/>
<use data-text="P" xlink:href="#font_0_49" transform="matrix(0,-12,-12,-0,12.96,164.81)"/>
<use data-text="r" xlink:href="#font_0_83" transform="matrix(0,-12,-12,-0,12.96,156.806)"/>
<use data-text="o" xlink:href="#font_0_80" transform="matrix(0,-12,-12,-0,12.96,152.81)"/>
<use data-text="b" xlink:href="#font_0_67" transform="matrix(0,-12,-12,-0,12.96,146.138)"/>
<use data-text="a" xlink:href="#font_0_66" transform="matrix(0,-12,-12,-0,12.96,139.466)"/>
<use data-text="b" xlink:href="#font_0_67" transform="matrix(0,-12,-12,-0,12.96,132.794)"/>
<use data-text="i" xlink:href="#font_0_74" transform="matrix(0,-12,-12,-0,12.96,126.12201)"/>
<use data-text="l" xlink:href="#font_0_77" transform="matrix(0,-12,-12,-0,12.96,123.45801)"/>
<use data-text="i" xlink:href="#font_0_74" transform="matrix(0,-12,-12,-0,12.96,120.79401)"/>
<use data-text="t" xlink:href="#font_0_85" transform="matrix(0,-12,-12,-0,12.96,118.130008)"/>
<use data-text="y" xlink:href="#font_0_90" transform="matrix(0,-12,-12,-0,12.96,114.79401)"/>
<path transform="matrix(1,0,0,-1,0,288)" stroke-width=".75" stroke-linecap="round" stroke-linejoin="round" fill="none" stroke="#000000" d="M59.04 73.44V228.96"/>
<path transform="matrix(1,0,0,-1,0,288)" stroke-width=".75" stroke-linecap="round" stroke-linejoin="round" fill="none" stroke="#000000" d="M59.04 73.44H51.84"/>
<path transform="matrix(1,0,0,-1,0,288)" stroke-width=".75" stroke-linecap="round" stroke-linejoin="round" fill="none" stroke="#000000" d="M59.04 99.36H51.84"/>
<path transform="matrix(1,0,0,-1,0,288)" stroke-width=".75" stroke-linecap="round" stroke-linejoin="round" fill="none" stroke="#000000" d="M59.04 125.28H51.84"/>
<path transform="matrix(1,0,0,-1,0,288)" stroke-width=".75" stroke-linecap="round" stroke-linejoin="round" fill="none" stroke="#000000" d="M59.04 151.2H51.84"/>
<path transform="matrix(1,0,0,-1,0,288)" stroke-width=".75" stroke-linecap="round" stroke-linejoin="round" fill="none" stroke="#000000" d="M59.04 177.12H51.84"/>
<path transform="matrix(1,0,0,-1,0,288)" stroke-width=".75" stroke-linecap="round" stroke-linejoin="round" fill="none" stroke="#000000" d="M59.04 203.04H51.84"/>
<path transform="matrix(1,0,0,-1,0,288)" stroke-width=".75" stroke-linecap="round" stroke-linejoin="round" fill="none" stroke="#000000" d="M59.04 228.96H51.84"/>
<use data-text="0" xlink:href="#font_0_17" transform="matrix(0,-12,-12,-0,41.76,222.9)"/>
<use data-text="." xlink:href="#font_0_15" transform="matrix(0,-12,-12,-0,41.76,216.228)"/>
<use data-text="0" xlink:href="#font_0_17" transform="matrix(0,-12,-12,-0,41.76,212.892)"/>
<use data-text="0" xlink:href="#font_0_17" transform="matrix(0,-12,-12,-0,41.76,171.06)"/>
<use data-text="." xlink:href="#font_0_15" transform="matrix(0,-12,-12,-0,41.76,164.388)"/>
<use data-text="2" xlink:href="#font_0_19" transform="matrix(0,-12,-12,-0,41.76,161.052)"/>
<use data-text="0" xlink:href="#font_0_17" transform="matrix(0,-12,-12,-0,41.76,119.22)"/>
<use data-text="." xlink:href="#font_0_15" transform="matrix(0,-12,-12,-0,41.76,112.548007)"/>
<use data-text="4" xlink:href="#font_0_21" transform="matrix(0,-12,-12,-0,41.76,109.212009)"/>
<use data-text="0" xlink:href="#font_0_17" transform="matrix(0,-12,-12,-0,41.76,67.380008)"/>
<use data-text="." xlink:href="#font_0_15" transform="matrix(0,-12,-12,-0,41.76,60.708009)"/>
<use data-text="6" xlink:href="#font_0_23" transform="matrix(0,-12,-12,-0,41.76,57.37201)"/>
</svg>
